<?xml version="1.0" encoding="UTF-8" standalone="no"?>
<!-- Created with Inkscape (http://www.inkscape.org/) -->

<svg
   xmlns:dc="http://purl.org/dc/elements/1.1/"
   xmlns:cc="http://creativecommons.org/ns#"
   xmlns:rdf="http://www.w3.org/1999/02/22-rdf-syntax-ns#"
   xmlns:svg="http://www.w3.org/2000/svg"
   xmlns="http://www.w3.org/2000/svg"
   xmlns:xlink="http://www.w3.org/1999/xlink"
   xmlns:sodipodi="http://sodipodi.sourceforge.net/DTD/sodipodi-0.dtd"
   xmlns:inkscape="http://www.inkscape.org/namespaces/inkscape"
   width="240"
   height="240"
   viewBox="0 0 63.499999 63.500002"
   version="1.1"
   id="svg8"
   inkscape:version="0.92.3 (2405546, 2018-03-11)"
   sodipodi:docname="IconN.svg">
  <defs
     id="defs2">
    <linearGradient
       inkscape:collect="always"
       id="linearGradient4666">
      <stop
         style="stop-color:#ffff00;stop-opacity:1;"
         offset="0"
         id="stop4662" />
      <stop
         id="stop4674"
         offset="0.5037449"
         style="stop-color:#ffff00;stop-opacity:0.50588235;" />
      <stop
         style="stop-color:#ffff00;stop-opacity:0;"
         offset="1"
         id="stop4664" />
    </linearGradient>
    <radialGradient
       inkscape:collect="always"
       xlink:href="#linearGradient4666"
       id="radialGradient4672"
       cx="41.579388"
       cy="25.968645"
       fx="41.579388"
       fy="25.968645"
       r="9"
       gradientUnits="userSpaceOnUse"
       gradientTransform="matrix(0.98430113,-0.01127462,0.0113953,0.99484968,-8.4820402,1.6516041)" />
  </defs>
  <sodipodi:namedview
     id="base"
     pagecolor="#008e8f"
     bordercolor="#666666"
     borderopacity="1.0"
     inkscape:pageopacity="0"
     inkscape:pageshadow="2"
     inkscape:zoom="1.979899"
     inkscape:cx="62.192245"
     inkscape:cy="154.44366"
     inkscape:document-units="mm"
     inkscape:current-layer="layer3"
     showgrid="false"
     units="px"
     inkscape:snap-grids="false"
     inkscape:snap-to-guides="true"
     inkscape:pagecheckerboard="false"
     inkscape:window-width="1920"
     inkscape:window-height="1001"
     inkscape:window-x="-9"
     inkscape:window-y="-9"
     inkscape:window-maximized="1">
    <inkscape:grid
       type="xygrid"
       id="grid947" />
  </sodipodi:namedview>
  <metadata
     id="metadata5">
    <rdf:RDF>
      <cc:Work
         rdf:about="">
        <dc:format>image/svg+xml</dc:format>
        <dc:type
           rdf:resource="http://purl.org/dc/dcmitype/StillImage" />
        <dc:title></dc:title>
      </cc:Work>
    </rdf:RDF>
  </metadata>
  <g
     inkscape:groupmode="layer"
     id="layer3"
     inkscape:label="Back">
    <rect
       style="opacity:1;fill:#00548e;fill-opacity:0;fill-rule:nonzero;stroke:none;stroke-width:3;stroke-miterlimit:4;stroke-dasharray:none;stroke-opacity:1"
       id="rect4676"
       width="63.5"
       height="63.5"
       x="0"
       y="-1.4210855e-014"
       ry="6.3282776e-015" />
  </g>
  <g
     inkscape:label="TV"
     inkscape:groupmode="layer"
     id="layer1"
     transform="translate(0,-233.49998)"
     style="display:inline">
    <path
       id="path815"
       d="m 55.048199,270.89811 h -44.58566 v -29.72378 h 44.58566 m 0,-4.95399 h -44.58566 a 4.9539622,4.9539622 0 0 0 -4.9539657,4.95399 v 29.72378 a 4.9539622,4.9539622 0 0 0 4.9539657,4.9539 H 22.847448 V 280.806 H 42.66329 v -4.95399 h 12.384909 a 4.9539622,4.9539622 0 0 0 4.953965,-4.9539 v -29.72378 a 4.9539622,4.9539622 0 0 0 -4.953965,-4.95399 z"
       inkscape:connector-curvature="0"
       style="stroke-width:2.47698092;fill:#020000;fill-opacity:1" />
  </g>
  <g
     inkscape:groupmode="layer"
     id="layer2"
     inkscape:label="Remote">
    <path
       style="display:inline;stroke-width:1.02435887;fill:#ff8f00;fill-opacity:0.97727275"
       d="m 27.942411,35.797536 c -0.03721,0.160798 -0.0593,0.328046 -0.0593,0.501387 v 16.790144 c 0,1.164796 0.890014,2.099003 1.999927,2.099003 h 5.9994 c 1.109918,0 1.999927,-0.934207 1.999927,-2.099003 V 36.298923 c 0,-0.173341 -0.02171,-0.340589 -0.05892,-0.501387 H 33.88289 v 0.501387 h -1.999925 v -0.501387 z m 3.940556,2.600016 h 1.999925 v 2.099001 h 1.99955 v 2.098628 h -1.99955 v 2.099003 h -1.999925 v -2.099003 h -1.999925 v -2.098628 h 1.999925 z m -1.999925,8.395258 h 1.999925 v 2.098628 h -1.999925 z m 3.99985,0 h 1.99955 v 2.098628 h -1.99955 z m -3.99985,4.197631 h 1.999925 v 2.098626 h -1.999925 z m 3.99985,0 h 1.99955 v 2.098626 h -1.99955 z"
       id="path828"
       inkscape:connector-curvature="0" />
    <path
       style="stroke-width:1.24999297;fill:#ff8f00;fill-opacity:0.97727275"
       d="m 32.886119,18.06466 a 8.7499509,8.7499509 0 0 0 -8.74991,8.74991 c 0,2.974982 1.487425,5.587321 3.749909,7.174813 v 2.82519 a 1.249993,1.249993 0 0 0 1.250094,1.24972 h 7.499816 a 1.249993,1.249993 0 0 0 1.250094,-1.24972 v -2.82519 c 2.262487,-1.587492 3.749906,-4.199831 3.749906,-7.174813 a 8.7499509,8.7499509 0 0 0 -8.749909,-8.74991 z m 0,2.499813 a 6.249965,6.249965 0 0 1 6.250097,6.250097 c 0,2.562486 -1.537793,4.762191 -3.750283,5.724688 v 3.025221 H 30.38593 V 32.539258 C 28.173446,31.576761 26.636023,29.377056 26.636023,26.81457 a 6.249965,6.249965 0 0 1 6.250096,-6.250097 z"
       id="path840"
       inkscape:connector-curvature="0" />
    <path
       style="color:#000000;font-style:normal;font-variant:normal;font-weight:normal;font-stretch:normal;font-size:medium;line-height:normal;font-family:sans-serif;font-variant-ligatures:normal;font-variant-position:normal;font-variant-caps:normal;font-variant-numeric:normal;font-variant-alternates:normal;font-feature-settings:normal;text-indent:0;text-align:start;text-decoration:none;text-decoration-line:none;text-decoration-style:solid;text-decoration-color:#000000;letter-spacing:normal;word-spacing:normal;text-transform:none;writing-mode:lr-tb;direction:ltr;text-orientation:mixed;dominant-baseline:auto;baseline-shift:baseline;text-anchor:start;white-space:normal;shape-padding:0;clip-rule:nonzero;display:inline;overflow:visible;visibility:visible;opacity:1;isolation:auto;mix-blend-mode:normal;color-interpolation:sRGB;color-interpolation-filters:linearRGB;solid-color:#000000;solid-opacity:1;vector-effect:none;fill:#ff8f00;fill-opacity:0.97727275;fill-rule:nonzero;stroke:none;stroke-width:2.17869711;stroke-linecap:butt;stroke-linejoin:miter;stroke-miterlimit:4;stroke-dasharray:none;stroke-dashoffset:0;stroke-opacity:1;color-rendering:auto;image-rendering:auto;shape-rendering:auto;text-rendering:auto;enable-background:accumulate"
       d="m 24.71352,19.542567 c 2.143196,-2.107383 4.995937,-3.357377 8.031109,-3.357406 3.035172,2.9e-5 5.886494,1.250023 8.02969,3.357406 l 1.740405,-1.331898 c -2.567891,-2.640371 -6.05897,-4.20417 -9.770095,-4.204205 -3.711241,3.5e-5 -7.203603,1.563682 -9.771514,4.204205 m -1.026938,-0.862401 c 2.837749,-2.92021 6.695197,-4.648126 10.798452,-4.648171 4.103486,4.6e-5 7.960663,1.727654 10.798451,4.648171 l 1.618379,-1.372144 c -3.288322,-3.918974 -7.30103,-5.454667 -12.41683,-5.454724 -5.115801,5.6e-5 -9.218956,1.561737 -12.507279,5.480711"
       id="path870"
       inkscape:connector-curvature="0"
       sodipodi:nodetypes="cccccccccccc" />
  </g>
</svg>
