<?xml version="1.0" encoding="UTF-8" standalone="no"?>
<!-- Created with Inkscape (http://www.inkscape.org/) -->

<svg
   xmlns:dc="http://purl.org/dc/elements/1.1/"
   xmlns:cc="http://creativecommons.org/ns#"
   xmlns:rdf="http://www.w3.org/1999/02/22-rdf-syntax-ns#"
   xmlns:svg="http://www.w3.org/2000/svg"
   xmlns="http://www.w3.org/2000/svg"
   xmlns:xlink="http://www.w3.org/1999/xlink"
   xmlns:sodipodi="http://sodipodi.sourceforge.net/DTD/sodipodi-0.dtd"
   xmlns:inkscape="http://www.inkscape.org/namespaces/inkscape"
   width="240"
   height="240"
   viewBox="0 0 63.499999 63.500002"
   version="1.1"
   id="svg8"
   inkscape:version="0.92.4 (5da689c313, 2019-01-14)"
   sodipodi:docname="Icon_round.svg"
   enable-background="new">
  <defs
     id="defs2">
    <linearGradient
       inkscape:collect="always"
       id="linearGradient4666">
      <stop
         style="stop-color:#ffff00;stop-opacity:1;"
         offset="0"
         id="stop4662" />
      <stop
         id="stop4674"
         offset="0.5037449"
         style="stop-color:#ffff00;stop-opacity:0.50588235;" />
      <stop
         style="stop-color:#ffff00;stop-opacity:0;"
         offset="1"
         id="stop4664" />
    </linearGradient>
    <radialGradient
       inkscape:collect="always"
       xlink:href="#linearGradient4666"
       id="radialGradient4672"
       cx="41.579388"
       cy="25.968645"
       fx="41.579388"
       fy="25.968645"
       r="9"
       gradientUnits="userSpaceOnUse"
       gradientTransform="matrix(0.98430113,-0.01127462,0.0113953,0.99484968,-8.4820402,1.6516041)" />
    <filter
       inkscape:collect="always"
       style="color-interpolation-filters:sRGB"
       id="filter4532">
      <feBlend
         inkscape:collect="always"
         mode="multiply"
         in2="BackgroundImage"
         id="feBlend4534" />
    </filter>
  </defs>
  <sodipodi:namedview
     id="base"
     pagecolor="#ffffff"
     bordercolor="#666666"
     borderopacity="1.0"
     inkscape:pageopacity="0"
     inkscape:pageshadow="2"
     inkscape:zoom="1.979899"
     inkscape:cx="101.33566"
     inkscape:cy="104.94619"
     inkscape:document-units="mm"
     inkscape:current-layer="layer3"
     showgrid="false"
     units="px"
     inkscape:snap-grids="false"
     inkscape:snap-to-guides="true"
     inkscape:pagecheckerboard="false"
     inkscape:window-width="1920"
     inkscape:window-height="1001"
     inkscape:window-x="-9"
     inkscape:window-y="-9"
     inkscape:window-maximized="1">
    <inkscape:grid
       type="xygrid"
       id="grid947" />
  </sodipodi:namedview>
  <metadata
     id="metadata5">
    <rdf:RDF>
      <cc:Work
         rdf:about="">
        <dc:format>image/svg+xml</dc:format>
        <dc:type
           rdf:resource="http://purl.org/dc/dcmitype/StillImage" />
        <dc:title></dc:title>
      </cc:Work>
    </rdf:RDF>
  </metadata>
  <g
     inkscape:groupmode="layer"
     id="layer3"
     inkscape:label="Back">
    <rect
       style="opacity:1;fill:#00548e;fill-opacity:0;fill-rule:nonzero;stroke:none;stroke-width:3;stroke-miterlimit:4;stroke-dasharray:none;stroke-opacity:1"
       id="rect4676"
       width="63.5"
       height="63.5"
       x="0"
       y="-1.4210855e-014"
       ry="6.3282776e-015" />
    <circle
       style="display:inline;filter:url(#filter4532);opacity:1;fill:#00548e;fill-opacity:0.98823529;stroke:none;stroke-width:0.55964339;stroke-miterlimit:4;stroke-dasharray:none;stroke-opacity:1"
       id="path4530"
       cx="-31.75"
       cy="265.24997"
       transform="matrix(-1,0,0,1,0,-233.49998)"
       r="31.470179" />
  </g>
  <g
     inkscape:label="TV"
     inkscape:groupmode="layer"
     id="layer1"
     transform="translate(0,-233.49998)"
     style="display:inline;filter:url(#filter4532)">
    <path
       id="path815"
       d="M 50.409111,273.22588 H 13.090889 V 248.3473 h 37.318222 m 0,-4.14646 H 13.090889 a 4.1464691,4.1464294 0 0 0 -4.1464717,4.14646 v 24.87858 a 4.1464691,4.1464294 0 0 0 4.1464717,4.14637 h 10.366176 v 4.14646 h 16.58587 v -4.14646 h 10.366176 a 4.1464691,4.1464294 0 0 0 4.146472,-4.14637 V 248.3473 a 4.1464691,4.1464294 0 0 0 -4.146472,-4.14646 z"
       inkscape:connector-curvature="0"
       style="fill:#020000;fill-opacity:1;stroke-width:2.07322454" />
  </g>
  <g
     inkscape:groupmode="layer"
     id="layer2"
     inkscape:label="Remote">
    <path
       style="display:inline;fill:#ff8f00;fill-opacity:0.97727272;stroke-width:0.85737914"
       d="m 27.768447,38.386194 c -0.03114,0.134587 -0.04963,0.274572 -0.04963,0.419658 v 14.053225 c 0,0.974925 0.744931,1.75685 1.673917,1.75685 h 5.021434 c 0.92899,0 1.673918,-0.781925 1.673918,-1.75685 V 38.805852 c 0,-0.145086 -0.01817,-0.285071 -0.04932,-0.419658 h -3.298202 v 0.419658 h -1.673916 v -0.419658 z m 3.298204,2.176194 h 1.673915 v 1.756848 h 1.673602 v 1.756536 h -1.673602 v 1.75685 h -1.673915 v -1.75685 h -1.673917 v -1.756536 h 1.673917 z m -1.673917,7.026769 h 1.673917 v 1.756536 h -1.673917 z m 3.347832,0 h 1.673602 v 1.756536 h -1.673602 z m -3.347832,3.513385 h 1.673917 v 1.756535 h -1.673917 z m 3.347832,0 h 1.673602 v 1.756535 h -1.673602 z"
       id="path828"
       inkscape:connector-curvature="0" />
    <path
       style="fill:#ff8f00;fill-opacity:0.97727272;stroke-width:1.04623282"
       d="m 31.906278,23.543909 a 7.3236159,7.3236436 0 0 0 -7.323582,7.32361 c 0,2.490038 1.244959,4.676546 3.138635,6.005265 v 2.364663 a 1.0462309,1.0462348 0 0 0 1.046315,1.046006 h 6.277266 a 1.0462309,1.0462348 0 0 0 1.046316,-1.046006 v -2.364663 c 1.893677,-1.328719 3.138631,-3.515227 3.138631,-6.005265 a 7.3236159,7.3236436 0 0 0 -7.323581,-7.32361 z m 0,2.092325 a 5.2311542,5.2311741 0 0 1 5.231265,5.231285 c 0,2.144781 -1.287117,3.985918 -3.138947,4.791521 v 2.532087 h -4.18495 V 35.65904 C 27.961821,34.853437 26.675014,33.0123 26.675014,30.867519 a 5.2311542,5.2311741 0 0 1 5.231264,-5.231285 z"
       id="path840"
       inkscape:connector-curvature="0" />
    <path
       style="color:#000000;font-style:normal;font-variant:normal;font-weight:normal;font-stretch:normal;font-size:medium;line-height:normal;font-family:sans-serif;font-variant-ligatures:normal;font-variant-position:normal;font-variant-caps:normal;font-variant-numeric:normal;font-variant-alternates:normal;font-feature-settings:normal;text-indent:0;text-align:start;text-decoration:none;text-decoration-line:none;text-decoration-style:solid;text-decoration-color:#000000;letter-spacing:normal;word-spacing:normal;text-transform:none;writing-mode:lr-tb;direction:ltr;text-orientation:mixed;dominant-baseline:auto;baseline-shift:baseline;text-anchor:start;white-space:normal;shape-padding:0;clip-rule:nonzero;display:inline;overflow:visible;visibility:visible;opacity:1;isolation:auto;mix-blend-mode:normal;color-interpolation:sRGB;color-interpolation-filters:linearRGB;solid-color:#000000;solid-opacity:1;vector-effect:none;fill:#ff8f00;fill-opacity:0.97727272;fill-rule:nonzero;stroke:none;stroke-width:1.82354987;stroke-linecap:butt;stroke-linejoin:miter;stroke-miterlimit:4;stroke-dasharray:none;stroke-dashoffset:0;stroke-opacity:1;color-rendering:auto;image-rendering:auto;shape-rendering:auto;text-rendering:auto;enable-background:accumulate"
       d="m 25.0659,24.780907 c 1.793832,-1.763864 4.181546,-2.8101 6.721952,-2.810124 2.540407,2.4e-5 4.926933,1.04626 6.720766,2.810124 l 1.4567,-1.114789 c -2.149297,-2.209971 -5.071294,-3.518859 -8.177466,-3.518888 -3.106269,2.9e-5 -6.029338,1.30879 -8.178653,3.518888 m -0.859536,-0.721823 c 2.375165,-2.444194 5.603809,-3.890447 9.038189,-3.890485 3.434575,3.9e-5 6.662991,1.446034 9.038189,3.890485 l 1.354566,-1.148475 c -2.75229,-3.280152 -6.110884,-4.565515 -10.392755,-4.565563 -4.28187,4.7e-5 -7.716168,1.307162 -10.468459,4.587314"
       id="path870"
       inkscape:connector-curvature="0"
       sodipodi:nodetypes="cccccccccccc" />
    <rect
       style="opacity:1;fill:#00548e;fill-opacity:0;fill-rule:nonzero;stroke:none;stroke-width:3;stroke-miterlimit:4;stroke-dasharray:none;stroke-opacity:1"
       id="rect4680"
       width="63.5"
       height="63.5"
       x="-45.703087"
       y="-23.897137"
       ry="6.3282776e-015" />
  </g>
</svg>
