<?xml version="1.0" encoding="UTF-8" standalone="no"?>
<!-- Created with Inkscape (http://www.inkscape.org/) -->

<svg
   xmlns:dc="http://purl.org/dc/elements/1.1/"
   xmlns:cc="http://creativecommons.org/ns#"
   xmlns:rdf="http://www.w3.org/1999/02/22-rdf-syntax-ns#"
   xmlns:svg="http://www.w3.org/2000/svg"
   xmlns="http://www.w3.org/2000/svg"
   xmlns:xlink="http://www.w3.org/1999/xlink"
   xmlns:sodipodi="http://sodipodi.sourceforge.net/DTD/sodipodi-0.dtd"
   xmlns:inkscape="http://www.inkscape.org/namespaces/inkscape"
   width="240"
   height="240"
   viewBox="0 0 63.499999 63.500002"
   version="1.1"
   id="svg8"
   inkscape:version="0.92.3 (2405546, 2018-03-11)"
   sodipodi:docname="Icon.svg">
  <defs
     id="defs2">
    <linearGradient
       inkscape:collect="always"
       id="linearGradient4666">
      <stop
         style="stop-color:#ffff00;stop-opacity:1;"
         offset="0"
         id="stop4662" />
      <stop
         id="stop4674"
         offset="0.5037449"
         style="stop-color:#ffff00;stop-opacity:0.50588235;" />
      <stop
         style="stop-color:#ffff00;stop-opacity:0;"
         offset="1"
         id="stop4664" />
    </linearGradient>
    <radialGradient
       inkscape:collect="always"
       xlink:href="#linearGradient4666"
       id="radialGradient4672"
       cx="41.579388"
       cy="25.968645"
       fx="41.579388"
       fy="25.968645"
       r="9"
       gradientUnits="userSpaceOnUse"
       gradientTransform="matrix(0.98430113,-0.01127462,0.0113953,0.99484968,-8.4820402,1.6516041)" />
  </defs>
  <sodipodi:namedview
     id="base"
     pagecolor="#ffffff"
     bordercolor="#666666"
     borderopacity="1.0"
     inkscape:pageopacity="0"
     inkscape:pageshadow="2"
     inkscape:zoom="1.979899"
     inkscape:cx="62.192245"
     inkscape:cy="154.44366"
     inkscape:document-units="mm"
     inkscape:current-layer="layer1"
     showgrid="false"
     units="px"
     inkscape:snap-grids="false"
     inkscape:snap-to-guides="true"
     inkscape:pagecheckerboard="false"
     inkscape:window-width="1920"
     inkscape:window-height="1001"
     inkscape:window-x="-9"
     inkscape:window-y="-9"
     inkscape:window-maximized="1">
    <inkscape:grid
       type="xygrid"
       id="grid947" />
  </sodipodi:namedview>
  <metadata
     id="metadata5">
    <rdf:RDF>
      <cc:Work
         rdf:about="">
        <dc:format>image/svg+xml</dc:format>
        <dc:type
           rdf:resource="http://purl.org/dc/dcmitype/StillImage" />
        <dc:title></dc:title>
      </cc:Work>
    </rdf:RDF>
  </metadata>
  <g
     inkscape:groupmode="layer"
     id="layer3"
     inkscape:label="Back">
    <rect
       style="opacity:1;fill:#00548e;fill-opacity:0;fill-rule:nonzero;stroke:none;stroke-width:3;stroke-miterlimit:4;stroke-dasharray:none;stroke-opacity:1"
       id="rect4676"
       width="63.5"
       height="63.5"
       x="0"
       y="-1.4210855e-014"
       ry="6.3282776e-015" />
    <rect
       style="opacity:1;fill:#00548e;fill-opacity:0.98863639;fill-rule:nonzero;stroke:none;stroke-width:3;stroke-miterlimit:4;stroke-dasharray:none;stroke-opacity:1"
       id="rect4682"
       width="63.5"
       height="63.5"
       x="0"
       y="-1.4210855e-014"
       ry="6.3282776e-015" />
  </g>
  <g
     inkscape:label="TV"
     inkscape:groupmode="layer"
     id="layer1"
     transform="translate(0,-233.49998)"
     style="display:inline">
    <path
       id="path815"
       d="M 54.043044,274.6023 H 9.456957 v -29.72378 h 44.586087 m 0,-4.95399 H 9.456957 a 4.9540096,4.9539622 0 0 0 -4.9540132,4.95399 v 29.72378 a 4.9540096,4.9539622 0 0 0 4.9540132,4.9539 h 12.385028 v 4.95399 h 19.816031 v -4.95399 h 12.385028 a 4.9540096,4.9539622 0 0 0 4.954012,-4.9539 v -29.72378 a 4.9540096,4.9539622 0 0 0 -4.954012,-4.95399 z"
       inkscape:connector-curvature="0"
       style="fill:#020000;fill-opacity:1;stroke-width:2.47699285" />
  </g>
  <g
     inkscape:groupmode="layer"
     id="layer2"
     inkscape:label="Remote">
    <path
       style="display:inline;fill:#ff8f00;fill-opacity:0.97727272;stroke-width:1.02435696"
       d="m 26.993025,39.501705 c -0.03721,0.160798 -0.0593,0.328046 -0.0593,0.501387 v 16.790144 c 0,1.164796 0.89001,2.099003 1.999919,2.099003 h 5.999377 c 1.109914,0 1.99992,-0.934207 1.99992,-2.099003 V 40.003092 c 0,-0.173341 -0.02171,-0.340589 -0.05892,-0.501387 h -3.94054 v 0.501387 h -1.999917 v -0.501387 z m 3.940541,2.600016 h 1.999917 v 2.099001 h 1.999542 v 2.098628 h -1.999542 v 2.099003 H 30.933566 V 46.29935 h -1.999918 v -2.098628 h 1.999918 z m -1.999918,8.395258 h 1.999918 v 2.098628 h -1.999918 z m 3.999835,0 h 1.999542 v 2.098628 h -1.999542 z m -3.999835,4.197631 h 1.999918 v 2.098626 h -1.999918 z m 3.999835,0 h 1.999542 v 2.098626 h -1.999542 z"
       id="path828"
       inkscape:connector-curvature="0" />
    <path
       style="fill:#ff8f00;fill-opacity:0.97727272;stroke-width:1.24999058"
       d="m 31.936714,21.768829 a 8.7499178,8.7499509 0 0 0 -8.749877,8.74991 c 0,2.974982 1.487419,5.587321 3.749895,7.174813 v 2.82519 a 1.2499883,1.249993 0 0 0 1.250089,1.24972 h 7.499788 a 1.2499883,1.249993 0 0 0 1.250089,-1.24972 v -2.82519 c 2.262478,-1.587492 3.749892,-4.199831 3.749892,-7.174813 a 8.7499178,8.7499509 0 0 0 -8.749876,-8.74991 z m 0,2.499813 a 6.2499413,6.249965 0 0 1 6.250073,6.250097 c 0,2.562486 -1.537787,4.762191 -3.750269,5.724688 v 3.025221 H 29.436534 V 36.243427 C 27.224059,35.28093 25.686641,33.081225 25.686641,30.518739 a 6.2499413,6.249965 0 0 1 6.250073,-6.250097 z"
       id="path840"
       inkscape:connector-curvature="0" />
    <path
       style="color:#000000;font-style:normal;font-variant:normal;font-weight:normal;font-stretch:normal;font-size:medium;line-height:normal;font-family:sans-serif;font-variant-ligatures:normal;font-variant-position:normal;font-variant-caps:normal;font-variant-numeric:normal;font-variant-alternates:normal;font-feature-settings:normal;text-indent:0;text-align:start;text-decoration:none;text-decoration-line:none;text-decoration-style:solid;text-decoration-color:#000000;letter-spacing:normal;word-spacing:normal;text-transform:none;writing-mode:lr-tb;direction:ltr;text-orientation:mixed;dominant-baseline:auto;baseline-shift:baseline;text-anchor:start;white-space:normal;shape-padding:0;clip-rule:nonzero;display:inline;overflow:visible;visibility:visible;opacity:1;isolation:auto;mix-blend-mode:normal;color-interpolation:sRGB;color-interpolation-filters:linearRGB;solid-color:#000000;solid-opacity:1;vector-effect:none;fill:#ff8f00;fill-opacity:0.97727272;fill-rule:nonzero;stroke:none;stroke-width:2.17869306;stroke-linecap:butt;stroke-linejoin:miter;stroke-miterlimit:4;stroke-dasharray:none;stroke-dashoffset:0;stroke-opacity:1;color-rendering:auto;image-rendering:auto;shape-rendering:auto;text-rendering:auto;enable-background:accumulate"
       d="m 23.764146,23.246736 c 2.143188,-2.107383 4.995918,-3.357377 8.031078,-3.357406 3.035161,2.9e-5 5.886472,1.250023 8.02966,3.357406 l 1.740398,-1.331898 c -2.567881,-2.640371 -6.058947,-4.20417 -9.770058,-4.204205 -3.711227,3.5e-5 -7.203575,1.563682 -9.771477,4.204205 m -1.026934,-0.862401 c 2.837738,-2.92021 6.695172,-4.648126 10.798411,-4.648171 4.103471,4.6e-5 7.960633,1.727654 10.79841,4.648171 l 1.618373,-1.372144 c -3.288309,-3.918974 -7.301002,-5.454667 -12.416783,-5.454724 -5.115781,5.6e-5 -9.218921,1.561737 -12.507231,5.480711"
       id="path870"
       inkscape:connector-curvature="0"
       sodipodi:nodetypes="cccccccccccc" />
    <rect
       style="opacity:1;fill:#00548e;fill-opacity:0;fill-rule:nonzero;stroke:none;stroke-width:3;stroke-miterlimit:4;stroke-dasharray:none;stroke-opacity:1"
       id="rect4680"
       width="63.5"
       height="63.5"
       x="-45.703087"
       y="-23.897137"
       ry="6.3282776e-015" />
  </g>
</svg>
