<?xml version="1.0" encoding="UTF-8" standalone="no"?>
<!-- Created with Inkscape (http://www.inkscape.org/) -->

<svg
   xmlns:dc="http://purl.org/dc/elements/1.1/"
   xmlns:cc="http://creativecommons.org/ns#"
   xmlns:rdf="http://www.w3.org/1999/02/22-rdf-syntax-ns#"
   xmlns:svg="http://www.w3.org/2000/svg"
   xmlns="http://www.w3.org/2000/svg"
   xmlns:sodipodi="http://sodipodi.sourceforge.net/DTD/sodipodi-0.dtd"
   xmlns:inkscape="http://www.inkscape.org/namespaces/inkscape"
   width="24"
   height="24"
   viewBox="0 0 6.3499998 6.3499998"
   version="1.1"
   id="svg834"
   inkscape:version="0.92.3 (2405546, 2018-03-11)"
   sodipodi:docname="OKExport.svg">
  <defs
     id="defs828" />
  <sodipodi:namedview
     id="base"
     pagecolor="#ffffff"
     bordercolor="#666666"
     borderopacity="1.0"
     inkscape:pageopacity="0.0"
     inkscape:pageshadow="2"
     inkscape:zoom="11.2"
     inkscape:cx="11.102098"
     inkscape:cy="10.3013"
     inkscape:document-units="mm"
     inkscape:current-layer="text6212"
     showgrid="false"
     units="px"
     inkscape:window-width="1920"
     inkscape:window-height="1001"
     inkscape:window-x="-9"
     inkscape:window-y="-9"
     inkscape:window-maximized="1" />
  <metadata
     id="metadata831">
    <rdf:RDF>
      <cc:Work
         rdf:about="">
        <dc:format>image/svg+xml</dc:format>
        <dc:type
           rdf:resource="http://purl.org/dc/dcmitype/StillImage" />
        <dc:title></dc:title>
      </cc:Work>
    </rdf:RDF>
  </metadata>
  <g
     inkscape:label="Ebene 1"
     inkscape:groupmode="layer"
     id="layer1"
     transform="translate(0,-290.65)">
    <circle
       style="opacity:1;fill:#4d4d4d;fill-opacity:1;stroke:none;stroke-width:0.2;stroke-miterlimit:4;stroke-dasharray:none;stroke-opacity:1"
       id="path1382"
       cx="3.175"
       cy="293.82501"
       r="3.175" />
    <g
       aria-label="OK"
       transform="matrix(0.7071176,0.7071176,-0.70709597,0.70709597,0,0)"
       style="font-style:normal;font-weight:normal;font-size:10.58317089px;line-height:1.25;font-family:sans-serif;letter-spacing:0px;word-spacing:0px;fill:#000000;fill-opacity:1;stroke:none;stroke-width:0.2645793"
       id="text6212">
      <path
         d="m 207.56428,205.56342 q 0,-0.62872 0.33762,-0.98356 0.33761,-0.35656 0.87159,-0.35656 0.34967,0 0.63045,0.16709 0.28077,0.16708 0.42718,0.4668 0.14814,0.298 0.14814,0.67695 0,0.38412 -0.15503,0.68729 -0.15503,0.30316 -0.43924,0.45991 -0.28422,0.15503 -0.61322,0.15503 -0.35656,0 -0.63733,-0.17225 -0.28077,-0.17226 -0.42547,-0.47025 -0.14469,-0.298 -0.14469,-0.63045 z m 0.34451,0.005 q 0,0.45647 0.24459,0.72002 0.24633,0.26182 0.61667,0.26182 0.37723,0 0.62011,-0.26527 0.24459,-0.26527 0.24459,-0.75274 0,-0.30833 -0.10507,-0.53743 -0.10335,-0.23082 -0.30489,-0.35656 -0.19981,-0.12747 -0.44957,-0.12747 -0.35484,0 -0.6115,0.2446 -0.25493,0.24288 -0.25493,0.81303 z"
         style="font-style:normal;font-variant:normal;font-weight:normal;font-stretch:normal;font-size:3.52772379px;line-height:2;font-family:Arial;-inkscape-font-specification:Arial;fill:#f9f9f9;stroke-width:0.2645793"
         id="path6214" />
      <path
         d="m 210.39439,206.7933 v -2.52521 h 0.33416 v 1.25227 l 1.254,-1.25227 h 0.45302 l -1.05935,1.02318 1.10586,1.50203 h -0.44096 l -0.89916,-1.27811 -0.41341,0.40307 v 0.87504 z"
         style="font-style:normal;font-variant:normal;font-weight:normal;font-stretch:normal;font-size:3.52772379px;line-height:2;font-family:Arial;-inkscape-font-specification:Arial;fill:#f9f9f9;stroke-width:0.2645793"
         id="path6216" />
    </g>
  </g>
</svg>
